<?xml version="1.0" encoding="UTF-8" standalone="no"?>
<svg xmlns="http://www.w3.org/2000/svg" version="1.1" viewBox="0 0 147.25781 32.914059">
  <path fill="#e4002b" d="m73.867 7.838c1.9525 0 3.7292 0.22633 5.543 0.70508v16.055c-1.8175 0.4775-3.593 0.70312-5.543 0.70312-1.9462 0-3.7228-0.22562-5.5391-0.70312v-16.068c1.6975-0.47625 3.4353-0.69141 5.5391-0.69141zm45.645-6.3926v30.199h7.4414v-18.453l11.551 18.453h8.1133v-30.199h-7.4883v18.381l-11.502-18.381h-8.1152zm-29.559 0v30.199h7.4414v-18.453l11.549 18.453h8.1094v-30.199h-7.4844v18.379l-11.504-18.379h-8.1113zm-89.594 0v27.459l0.41211 0.24414c3.7812 2.225 8.3412 3.4023 13.187 3.4023 4.7788 0 9.4625-1.2086 13.188-3.4023l0.41211-0.24414v-27.459h-8.0586v23.162c-0.06 0.01875-0.12164 0.03789-0.18164 0.05664-1.6612 0.49875-3.3756 1.0156-5.3594 1.0156-1.9825 0-3.6994-0.51688-5.3594-1.0156-0.06125-0.01875-0.12039-0.03789-0.18164-0.05664v-23.162h-8.0586zm73.506-0.80859c-4.7988 0-9.4777 1.1727-13.178 3.3027l-0.41992 0.24219v24.775l0.41992 0.24219c3.755 2.1612 8.3115 3.3027 13.178 3.3027 4.7975 0 9.4797-1.174 13.18-3.3027l0.42188-0.24219v-24.775l-0.42188-0.24219c-3.752-2.1616-8.31-3.3031-13.18-3.3031zm-30.039 0c-4.8725 0-9.4149 1.1598-13.139 3.3535l-0.41406 0.24414v24.723l0.42187 0.24219c3.7 2.13 8.3646 3.3027 13.131 3.3027 4.8675 0 9.4234-1.1402 13.18-3.3027l0.41797-0.24219v-9.9902h-8.0605v5.6328c-1.7725 0.47625-3.5496 0.69922-5.5371 0.69922-1.9588 0-3.7216-0.22297-5.4941-0.69922v-16.061c1.77-0.475 3.5341-0.70117 5.4941-0.70117 1.99 0 3.7646 0.22617 5.5371 0.70117v4.4434h8.0605v-8.748l-0.41211-0.24414c-3.723-2.1936-8.281-3.3534-13.185-3.3534z"/>
  <path fill="#000e2f" d="m73.868 6.9982c2.4287 0 4.4277 0.33195 6.3789 0.9082v17.328c-1.9512 0.57125-3.9502 0.9043-6.3789 0.9043-2.4288 0-4.4264-0.33305-6.3789-0.9043v-17.328c1.9525-0.62125 3.9502-0.9082 6.3789-0.9082zm46.484-4.7129v28.52h5.7617v-20.234h0.18945l12.664 20.234h6.8086v-28.52h-5.8066v20.236h-0.14258l-12.666-20.236h-6.8086zm-29.559 0v28.52h5.7598v-20.234h0.19141l12.662 20.234h6.8125v-28.52h-5.8106v20.236h-0.14257l-12.668-20.236h-6.8047zm-89.596 0v26.139c3.4775 2.0488 7.9055 3.2871 12.762 3.2871 4.8088 0 9.2848-1.2384 12.76-3.2871v-26.139h-6.3809v22.949c-1.9512 0.57125-3.9514 1.2852-6.3789 1.2852-2.4288 0-4.4296-0.71391-6.3809-1.2852v-22.949h-6.3809zm72.67-0.8086c-4.8075 0-9.2842 1.1882-12.762 3.1895v23.805c3.4775 2.0012 7.9055 3.1934 12.762 3.1934 4.81 0 9.2841-1.1921 12.758-3.1934v-23.805c-3.474-2.001-7.903-3.1892-12.758-3.1892zm-30.041 0c-4.8088 0-9.2379 1.1888-12.713 3.2363v23.758c3.475 2.0012 7.9041 3.1934 12.713 3.1934 4.855 0 9.2835-1.1921 12.76-3.1934v-8.6641h-6.3809v5.4277c-1.9062 0.57125-3.9489 0.9043-6.3789 0.9043-2.4288 0-4.4277-0.33305-6.334-0.9043v-17.328c1.9062-0.575 3.9052-0.9082 6.334-0.9082 2.43 0 4.4727 0.3332 6.3789 0.9082v4.2363h6.3809v-7.4297c-3.477-2.048-7.905-3.2368-12.76-3.2368z"/>
</svg>
